<svg xmlns="http://www.w3.org/2000/svg" viewBox="0 0 512 512">
  <defs>
    <linearGradient id="bg" x1="0" y1="0" x2="1" y2="1">
      <stop offset="0%" stop-color="#17324d"/>
      <stop offset="100%" stop-color="#2b6c8f"/>
    </linearGradient>
  </defs>
  <rect width="512" height="512" rx="112" fill="url(#bg)"/>
  <path d="M108 320h296c16 0 28 12 28 28s-12 28-28 28H108c-16 0-28-12-28-28s12-28 28-28zm60-164h176c46 0 84 38 84 84s-38 84-84 84H168c-46 0-84-38-84-84s38-84 84-84zm0 56c-16 0-28 12-28 28s12 28 28 28h176c16 0 28-12 28-28s-12-28-28-28H168z" fill="#f4f1ea"/>
  <path d="M126 118h260v40H126z" fill="#d8b26e"/>
</svg>
